<svg width="144" height="144" viewBox="0 0 144 144" fill="none" xmlns="http://www.w3.org/2000/svg">
<g clip-path="url(#clip0_201_3)">
<path d="M3.32418 23.9535C2.01364 24.1234 0 24.5867 0 24.5867C3.82985 26.794 10.4254 32.2903 15.6711 43.8985C20.9168 55.5068 41.9479 126.211 41.9479 126.211H49.3878L69.8077 50.7052L95.4513 126.211H102.891L122.001 54.2755L120.352 53.726L103.683 98.51H103.208L77.4058 24.745H69.1745L49.8626 98.51H49.2295L31.1839 40.5744C28.7568 34.3481 25.4854 30.0214 21.3697 27.5943C17.2541 25.1671 10.4537 23.0289 3.32418 23.9535Z" fill="black"/>
<path d="M143.466 19.202C110.067 23.4739 108.537 43.2938 119.574 55.8848C133.806 58.7645 144.295 50.1466 143.164 37.798C142.843 34.295 141.51 25.6196 143.466 19.202Z" fill="#CE3358"/>
<path d="M136.24 24.5956C125.797 35.0386 123.661 47.8834 122.758 51.3032C121.631 55.5779 120.85 36.6875 136.24 24.5956Z" fill="#FCDDEC"/>
<path d="M110.165 35.2023C125.034 39.219 127.437 49.6326 120.874 55.8995C113.052 56.7704 108.232 51.8674 109.436 45.2555C109.777 43.3799 110.913 38.7607 110.165 35.2023Z" fill="#EE4870"/>
<path d="M113.989 40.7496C115.902 44.2212 119.789 51.5541 120.029 53.1128C120.329 55.0612 120.195 47.9507 113.989 40.7496Z" fill="#FCDDEC"/>
</g>
<defs>
<clipPath id="clip0_201_3">
<rect width="144" height="144" fill="white"/>
</clipPath>
</defs>
</svg>
