<svg width="827" height="171" viewBox="0 0 827 171" fill="none" xmlns="http://www.w3.org/2000/svg">
<g filter="url(#filter0_d_3_4)">
<path d="M140.056 131.432C139.384 131.432 138.808 131.144 138.328 130.568C137.944 129.992 137.752 129.32 137.752 128.552C137.848 127.304 138.136 126.584 138.616 126.392C139.096 126.104 139.96 125.96 141.208 125.96C143.704 125.96 145.48 125.528 146.536 124.664C147.592 123.8 148.168 122.792 148.264 121.64C148.456 120.488 148.552 118.664 148.552 116.168V83.192C148.552 80.696 148.456 78.872 148.264 77.72C148.168 76.568 147.592 75.56 146.536 74.696C145.48 73.832 143.704 73.4 141.208 73.4C140.056 73.4 139.192 73.256 138.616 72.968C138.04 72.584 137.752 71.768 137.752 70.52C137.752 69.944 137.944 69.416 138.328 68.936C138.712 68.36 139.288 68.024 140.056 67.928C146.104 67.064 151.288 65.816 155.608 64.184C156.952 63.704 158.056 63.416 158.92 63.32H159.352C160.888 63.32 161.656 64.232 161.656 66.056V116.168C161.656 118.664 161.752 120.488 161.944 121.64C162.136 122.792 162.76 123.8 163.816 124.664C164.872 125.528 166.648 125.96 169.144 125.96H170.008C170.776 125.96 171.352 126.104 171.736 126.392C172.12 126.68 172.36 127.4 172.456 128.552C172.456 129.32 172.264 129.992 171.88 130.568C171.496 131.144 170.92 131.432 170.152 131.432C164.584 131.144 159.544 131 155.032 131C150.712 131 145.72 131.144 140.056 131.432ZM154.312 47.336C151.624 47.336 149.368 46.52 147.544 44.888C145.72 43.16 144.808 41.048 144.808 38.552C144.808 36.344 145.912 34.376 148.12 32.648C150.328 30.92 152.824 30.056 155.608 30.056C158.008 30.056 159.976 30.92 161.512 32.648C163.048 34.28 163.816 36.392 163.816 38.984C163.816 41.288 162.904 43.256 161.08 44.888C159.256 46.52 157 47.336 154.312 47.336ZM210.769 132.728C205.393 132.728 200.401 131.288 195.793 128.408C191.185 125.432 187.489 121.352 184.705 116.168C181.921 110.888 180.529 104.936 180.529 98.312C180.529 92.36 181.969 86.744 184.849 81.464C187.729 76.184 191.713 71.96 196.801 68.792C201.889 65.624 207.553 64.04 213.793 64.04C216.769 64.04 219.745 64.424 222.721 65.192C225.697 65.864 228.289 66.824 230.497 68.072H230.929V46.04C230.929 43.544 230.833 41.72 230.641 40.568C230.545 39.416 229.969 38.408 228.913 37.544C227.857 36.68 226.081 36.248 223.585 36.248C222.433 36.248 221.569 36.104 220.993 35.816C220.417 35.432 220.129 34.616 220.129 33.368C220.129 32.792 220.321 32.264 220.705 31.784C221.089 31.208 221.665 30.872 222.433 30.776C228.481 29.912 233.665 28.664 237.985 27.032C239.329 26.552 240.433 26.264 241.297 26.168H241.729C243.265 26.168 244.033 27.08 244.033 28.904V117.752C244.033 123.416 247.777 126.248 255.265 126.248C256.897 126.248 257.713 127.016 257.713 128.552C257.713 129.896 256.897 130.712 255.265 131L232.369 132.584C231.697 132.584 231.313 132.344 231.217 131.864C231.121 131.48 231.073 130.76 231.073 129.704V123.944H230.641C228.145 126.536 225.073 128.648 221.425 130.28C217.873 131.912 214.321 132.728 210.769 132.728ZM215.665 125.528C219.025 125.528 221.857 124.904 224.161 123.656C226.561 122.312 228.817 120.536 230.929 118.328V80.312C230.065 77.528 228.241 74.984 225.457 72.68C222.769 70.376 219.361 69.224 215.233 69.224C211.489 69.224 208.081 70.424 205.009 72.824C202.033 75.128 199.681 78.536 197.953 83.048C196.225 87.56 195.361 92.888 195.361 99.032C195.361 106.424 197.089 112.712 200.545 117.896C204.097 122.984 209.137 125.528 215.665 125.528ZM265.212 131.432C264.54 131.432 263.964 131.144 263.484 130.568C263.1 129.992 262.908 129.32 262.908 128.552C263.004 127.304 263.292 126.584 263.772 126.392C264.252 126.104 265.116 125.96 266.364 125.96C268.86 125.96 270.636 125.528 271.692 124.664C272.748 123.8 273.324 122.792 273.42 121.64C273.612 120.488 273.708 118.664 273.708 116.168V83.192C273.708 80.696 273.612 78.872 273.42 77.72C273.324 76.568 272.748 75.56 271.692 74.696C270.636 73.832 268.86 73.4 266.364 73.4C265.212 73.4 264.348 73.256 263.772 72.968C263.196 72.584 262.908 71.768 262.908 70.52C262.908 69.944 263.1 69.416 263.484 68.936C263.868 68.36 264.444 68.024 265.212 67.928C271.26 67.064 276.444 65.816 280.764 64.184C282.108 63.704 283.212 63.416 284.076 63.32H284.508C286.044 63.32 286.812 64.232 286.812 66.056V116.168C286.812 118.664 286.908 120.488 287.1 121.64C287.292 122.792 287.916 123.8 288.972 124.664C290.028 125.528 291.804 125.96 294.3 125.96H295.164C295.932 125.96 296.508 126.104 296.892 126.392C297.276 126.68 297.516 127.4 297.612 128.552C297.612 129.32 297.42 129.992 297.036 130.568C296.652 131.144 296.076 131.432 295.308 131.432C289.74 131.144 284.7 131 280.188 131C275.868 131 270.876 131.144 265.212 131.432ZM279.468 47.336C276.78 47.336 274.524 46.52 272.7 44.888C270.876 43.16 269.964 41.048 269.964 38.552C269.964 36.344 271.068 34.376 273.276 32.648C275.484 30.92 277.98 30.056 280.764 30.056C283.164 30.056 285.132 30.92 286.668 32.648C288.204 34.28 288.972 36.392 288.972 38.984C288.972 41.288 288.06 43.256 286.236 44.888C284.412 46.52 282.156 47.336 279.468 47.336ZM313.465 162.392C309.337 162.392 305.641 161.048 302.377 158.36C299.209 155.768 297.625 152.648 297.625 149C297.625 144.68 298.825 141.896 301.225 140.648C303.625 139.496 305.497 138.92 306.841 138.92C308.473 138.92 309.817 139.256 310.873 139.928C311.929 140.6 312.457 141.224 312.457 141.8C312.457 141.992 312.073 142.472 311.305 143.24C310.537 144.008 310.153 145.352 310.153 147.272C310.153 149.192 310.729 150.872 311.881 152.312C313.129 153.752 314.857 154.472 317.065 154.472C323.113 154.472 329.017 148.28 334.777 135.896C335.161 134.552 335.353 133.544 335.353 132.872C335.353 131.912 335.113 130.712 334.633 129.272C332.713 124.952 329.497 116.936 324.985 105.224C321.049 94.76 317.833 86.792 315.337 81.32C313.705 77.576 312.169 75.032 310.729 73.688C309.289 72.248 307.177 71.336 304.393 70.952C304.105 70.856 303.577 70.76 302.809 70.664C302.041 70.568 301.561 70.328 301.369 69.944C301.177 69.56 301.081 68.888 301.081 67.928C301.081 66.776 301.369 66.056 301.945 65.768C302.617 65.48 303.385 65.336 304.249 65.336C305.209 65.24 305.833 65.192 306.121 65.192C311.977 64.904 316.585 65.768 319.945 67.784C323.305 69.704 326.089 73.112 328.297 78.008C330.409 82.904 332.281 87.56 333.913 91.976C337.753 102.344 340.873 109.928 343.273 114.728H343.705L357.817 77C358.297 75.368 358.537 74.216 358.537 73.544C358.537 72.488 358.057 71.768 357.097 71.384C356.137 71 354.553 70.808 352.345 70.808H351.481C350.713 70.808 350.137 70.664 349.753 70.376C349.465 70.088 349.273 69.368 349.177 68.216C349.177 67.544 349.321 66.92 349.609 66.344C349.993 65.672 350.521 65.336 351.193 65.336C356.665 65.624 361.321 65.768 365.161 65.768C366.697 65.768 369.673 65.672 374.089 65.48L377.113 65.336C377.785 65.336 378.313 65.672 378.697 66.344C379.081 66.92 379.273 67.544 379.273 68.216C379.177 69.368 378.937 70.088 378.553 70.376C378.169 70.664 377.593 70.808 376.825 70.808C373.273 70.808 370.537 71.384 368.617 72.536C366.697 73.688 365.065 75.944 363.721 79.304C361.513 84.776 357.961 93.56 353.065 105.656C348.169 117.752 344.521 126.68 342.121 132.44C338.665 140.696 334.633 147.752 330.025 153.608C325.417 159.464 319.897 162.392 313.465 162.392ZM402.583 132.728C396.823 132.728 392.167 131.096 388.615 127.832C385.063 124.568 383.287 120.488 383.287 115.592C383.287 109.544 385.303 105.032 389.335 102.056C393.367 98.984 398.167 97.016 403.735 96.152C409.303 95.192 416.503 94.472 425.335 93.992V82.616C425.335 77.912 424.135 74.36 421.735 71.96C419.431 69.464 415.687 68.216 410.503 68.216C407.527 68.216 404.935 69.128 402.727 70.952C400.519 72.776 399.415 75.224 399.415 78.296C399.415 79.832 399.751 81.128 400.423 82.184C401.191 83.144 401.959 83.96 402.727 84.632C403.591 85.304 404.023 85.688 404.023 85.784C404.023 86.36 403.399 87.128 402.151 88.088C400.999 88.952 399.559 89.384 397.831 89.384C394.951 89.384 392.647 88.328 390.919 86.216C389.287 84.104 388.471 81.608 388.471 78.728C388.471 73.736 390.679 70.04 395.095 67.64C399.607 65.24 405.031 64.04 411.367 64.04C419.239 64.04 425.623 65.528 430.519 68.504C435.511 71.48 438.007 77 438.007 85.064V118.616C438.103 120.632 438.727 122.552 439.879 124.376C441.031 126.2 442.903 127.112 445.495 127.112C446.263 127.112 446.791 127.256 447.079 127.544C447.463 127.832 447.655 128.456 447.655 129.416C447.655 130.568 446.743 131.384 444.919 131.864C443.191 132.44 441.463 132.728 439.735 132.728C436.087 132.728 432.871 131.672 430.087 129.56C427.303 127.448 425.719 124.616 425.335 121.064C423.319 124.808 420.199 127.688 415.975 129.704C411.847 131.72 407.383 132.728 402.583 132.728ZM407.191 124.952C410.455 124.952 413.479 124.136 416.263 122.504C419.047 120.872 421.255 118.664 422.887 115.88C424.519 113 425.335 109.832 425.335 106.376V98.168C415.255 98.936 408.151 100.568 404.023 103.064C399.895 105.56 397.831 109.592 397.831 115.16C397.831 121.688 400.951 124.952 407.191 124.952ZM520.754 133.88C510.674 133.88 502.946 132.152 497.57 128.696C492.29 125.144 489.65 119.96 489.65 113.144C489.65 109.688 490.802 106.856 493.106 104.648C495.506 102.344 498.578 101.192 502.322 101.192C504.53 101.288 506.21 101.864 507.362 102.92C508.514 103.88 509.09 104.792 509.09 105.656C509.09 105.752 508.61 106.088 507.65 106.664C506.69 107.24 505.826 108.104 505.058 109.256C504.29 110.408 503.906 111.992 503.906 114.008C503.906 118.52 505.25 122.024 507.938 124.52C510.722 126.92 514.994 128.12 520.754 128.12C524.69 128.12 528.146 127.352 531.122 125.816C534.098 124.28 536.354 122.264 537.89 119.768C539.522 117.176 540.338 114.488 540.338 111.704C540.338 108.248 539.33 105.272 537.314 102.776C535.394 100.28 532.994 98.216 530.114 96.584C527.234 94.856 523.298 92.888 518.306 90.68C512.546 88.088 507.89 85.736 504.338 83.624C500.786 81.512 497.762 78.728 495.266 75.272C492.77 71.72 491.522 67.352 491.522 62.168C491.522 53.816 494.354 47.576 500.018 43.448C505.778 39.32 513.314 37.256 522.626 37.256C529.922 37.256 536.258 38.792 541.634 41.864C547.106 44.936 549.842 49.448 549.842 55.4C549.842 58.856 548.642 61.736 546.242 64.04C543.938 66.248 540.914 67.352 537.17 67.352C534.962 67.256 533.282 66.728 532.13 65.768C530.978 64.712 530.402 63.752 530.402 62.888C530.402 62.792 531.026 62.456 532.274 61.88C533.618 61.304 534.77 60.44 535.73 59.288C536.786 58.136 537.314 56.552 537.314 54.536C537.314 50.984 535.922 48.2 533.138 46.184C530.45 44.168 526.994 43.16 522.77 43.16C516.914 43.16 512.45 44.552 509.378 47.336C506.402 50.024 504.914 53.384 504.914 57.416C504.914 60.776 505.826 63.608 507.65 65.912C509.474 68.12 512.402 70.328 516.434 72.536C519.698 74.264 523.25 75.992 527.09 77.72C533.234 80.504 538.082 83.048 541.634 85.352C545.282 87.656 548.306 90.68 550.706 94.424C553.202 98.168 554.45 102.824 554.45 108.392C554.45 113.192 552.914 117.56 549.842 121.496C546.866 125.336 542.786 128.36 537.602 130.568C532.514 132.776 526.898 133.88 520.754 133.88ZM585.255 132.728C579.495 132.728 574.839 131.096 571.287 127.832C567.735 124.568 565.959 120.488 565.959 115.592C565.959 109.544 567.975 105.032 572.007 102.056C576.039 98.984 580.839 97.016 586.407 96.152C591.975 95.192 599.175 94.472 608.007 93.992V82.616C608.007 77.912 606.807 74.36 604.407 71.96C602.103 69.464 598.359 68.216 593.175 68.216C590.199 68.216 587.607 69.128 585.399 70.952C583.191 72.776 582.087 75.224 582.087 78.296C582.087 79.832 582.423 81.128 583.095 82.184C583.863 83.144 584.631 83.96 585.399 84.632C586.263 85.304 586.695 85.688 586.695 85.784C586.695 86.36 586.071 87.128 584.823 88.088C583.671 88.952 582.231 89.384 580.503 89.384C577.623 89.384 575.319 88.328 573.591 86.216C571.959 84.104 571.143 81.608 571.143 78.728C571.143 73.736 573.351 70.04 577.767 67.64C582.279 65.24 587.703 64.04 594.039 64.04C601.911 64.04 608.295 65.528 613.191 68.504C618.183 71.48 620.679 77 620.679 85.064V118.616C620.775 120.632 621.399 122.552 622.551 124.376C623.703 126.2 625.575 127.112 628.167 127.112C628.935 127.112 629.463 127.256 629.751 127.544C630.135 127.832 630.327 128.456 630.327 129.416C630.327 130.568 629.415 131.384 627.591 131.864C625.863 132.44 624.135 132.728 622.407 132.728C618.759 132.728 615.543 131.672 612.759 129.56C609.975 127.448 608.391 124.616 608.007 121.064C605.991 124.808 602.871 127.688 598.647 129.704C594.519 131.72 590.055 132.728 585.255 132.728ZM589.863 124.952C593.127 124.952 596.151 124.136 598.935 122.504C601.719 120.872 603.927 118.664 605.559 115.88C607.191 113 608.007 109.832 608.007 106.376V98.168C597.927 98.936 590.823 100.568 586.695 103.064C582.567 105.56 580.503 109.592 580.503 115.16C580.503 121.688 583.623 124.952 589.863 124.952ZM664.595 132.728C656.915 132.728 650.675 131.384 645.875 128.696C641.075 126.008 638.675 122.216 638.675 117.32C638.675 114.536 639.491 112.28 641.123 110.552C642.851 108.824 645.059 107.96 647.747 107.96C649.283 107.96 650.627 108.392 651.779 109.256C653.027 110.12 653.651 110.792 653.651 111.272C653.651 111.368 653.075 111.992 651.923 113.144C650.867 114.296 650.339 115.928 650.339 118.04C650.339 120.92 651.635 123.224 654.227 124.952C656.915 126.584 660.755 127.4 665.747 127.4C670.259 127.4 673.763 126.44 676.259 124.52C678.851 122.504 680.147 119.72 680.147 116.168C680.147 113.768 679.427 111.8 677.987 110.264C676.547 108.728 674.723 107.528 672.515 106.664C670.403 105.8 667.427 104.792 663.587 103.64C658.883 102.296 655.043 100.952 652.067 99.608C649.091 98.264 646.547 96.248 644.435 93.56C642.323 90.872 641.267 87.368 641.267 83.048C641.267 79.016 642.515 75.56 645.011 72.68C647.507 69.8 650.723 67.64 654.659 66.2C658.691 64.76 662.915 64.04 667.331 64.04C672.995 64.04 677.891 65.24 682.019 67.64C686.243 70.04 688.355 73.4 688.355 77.72C688.355 80.312 687.539 82.52 685.907 84.344C684.371 86.168 682.307 87.08 679.715 87.08C678.179 87.08 676.787 86.648 675.539 85.784C674.387 84.92 673.811 84.248 673.811 83.768C673.811 83.672 674.195 83.288 674.963 82.616C675.731 81.944 676.403 81.176 676.979 80.312C677.651 79.352 677.987 78.248 677.987 77C677.795 74.408 676.499 72.392 674.099 70.952C671.699 69.512 668.867 68.792 665.603 68.792C661.955 68.792 658.739 69.656 655.955 71.384C653.267 73.016 651.923 75.32 651.923 78.296C651.923 80.984 652.499 83.144 653.651 84.776C654.803 86.312 656.531 87.56 658.835 88.52C661.139 89.48 664.787 90.776 669.779 92.408C674.867 94.04 678.851 95.576 681.731 97.016C684.611 98.36 686.867 100.232 688.499 102.632C690.227 104.936 691.091 108.008 691.091 111.848C691.091 115.784 689.939 119.384 687.635 122.648C685.331 125.816 682.163 128.312 678.131 130.136C674.099 131.864 669.587 132.728 664.595 132.728ZM704.103 131.432C703.431 131.432 702.855 131.144 702.375 130.568C701.991 129.992 701.799 129.32 701.799 128.552C701.895 127.304 702.183 126.584 702.663 126.392C703.143 126.104 704.007 125.96 705.255 125.96C707.751 125.96 709.527 125.528 710.583 124.664C711.639 123.8 712.215 122.792 712.311 121.64C712.503 120.488 712.599 118.664 712.599 116.168V83.192C712.599 80.696 712.503 78.872 712.311 77.72C712.215 76.568 711.639 75.56 710.583 74.696C709.527 73.832 707.751 73.4 705.255 73.4C704.103 73.4 703.239 73.256 702.663 72.968C702.087 72.584 701.799 71.768 701.799 70.52C701.799 69.944 701.991 69.416 702.375 68.936C702.759 68.36 703.335 68.024 704.103 67.928C710.151 67.064 715.335 65.816 719.655 64.184C720.999 63.704 722.103 63.416 722.967 63.32H723.399C724.935 63.32 725.703 64.232 725.703 66.056V116.168C725.703 118.664 725.799 120.488 725.991 121.64C726.183 122.792 726.807 123.8 727.863 124.664C728.919 125.528 730.695 125.96 733.191 125.96H734.055C734.823 125.96 735.399 126.104 735.783 126.392C736.167 126.68 736.407 127.4 736.503 128.552C736.503 129.32 736.311 129.992 735.927 130.568C735.543 131.144 734.967 131.432 734.199 131.432C728.631 131.144 723.591 131 719.079 131C714.759 131 709.767 131.144 704.103 131.432ZM718.359 47.336C715.671 47.336 713.415 46.52 711.591 44.888C709.767 43.16 708.855 41.048 708.855 38.552C708.855 36.344 709.959 34.376 712.167 32.648C714.375 30.92 716.871 30.056 719.655 30.056C722.055 30.056 724.023 30.92 725.559 32.648C727.095 34.28 727.863 36.392 727.863 38.984C727.863 41.288 726.951 43.256 725.127 44.888C723.303 46.52 721.047 47.336 718.359 47.336ZM745.272 131.432C744.504 131.432 743.928 131.144 743.544 130.568C743.16 129.992 742.968 129.32 742.968 128.552C743.064 127.304 743.304 126.584 743.688 126.392C744.168 126.104 745.032 125.96 746.28 125.96C748.776 125.96 750.552 125.528 751.608 124.664C752.664 123.8 753.288 122.792 753.48 121.64C753.672 120.488 753.768 118.664 753.768 116.168V45.896C753.768 43.4 753.672 41.576 753.48 40.424C753.384 39.272 752.808 38.264 751.752 37.4C750.696 36.536 748.92 36.104 746.424 36.104C745.272 36.104 744.408 35.96 743.832 35.672C743.256 35.288 742.968 34.472 742.968 33.224C742.968 32.648 743.16 32.12 743.544 31.64C743.928 31.064 744.504 30.728 745.272 30.632C750.072 29.96 753.672 29.24 756.072 28.472C758.568 27.608 760.008 27.128 760.392 27.032C762.216 26.36 763.464 26.024 764.136 26.024C765.96 26.024 766.872 26.936 766.872 28.76V75.128H767.16C769.944 72.536 772.2 70.568 773.928 69.224C775.656 67.784 777.864 66.584 780.552 65.624C783.336 64.568 786.6 64.04 790.344 64.04C796.872 64.04 802.056 66.008 805.896 69.944C809.736 73.88 811.656 79.064 811.656 85.496V116.168C811.656 118.664 811.704 120.488 811.8 121.64C811.992 122.792 812.616 123.8 813.672 124.664C814.728 125.528 816.504 125.96 819 125.96H819.864C820.728 125.96 821.304 126.104 821.592 126.392C821.976 126.68 822.216 127.4 822.312 128.552C822.312 129.32 822.12 129.992 821.736 130.568C821.352 131.144 820.824 131.432 820.152 131.432C814.488 131.144 809.448 131 805.032 131C800.52 131 795.528 131.144 790.056 131.432C789.288 131.432 788.712 131.144 788.328 130.568C787.944 129.992 787.752 129.32 787.752 128.552C787.848 127.304 788.088 126.584 788.472 126.392C788.952 126.104 789.816 125.96 791.064 125.96C793.56 125.96 795.336 125.528 796.392 124.664C797.448 123.8 798.024 122.84 798.12 121.784C798.312 120.632 798.408 118.76 798.408 116.168V85.64C798.408 81.224 797.016 77.864 794.232 75.56C791.544 73.16 788.376 71.96 784.728 71.96C780.312 71.96 776.472 73.064 773.208 75.272C770.04 77.48 767.928 79.688 766.872 81.896V116.168C766.872 118.664 766.92 120.488 767.016 121.64C767.208 122.792 767.832 123.8 768.888 124.664C769.944 125.528 771.72 125.96 774.216 125.96H775.08C775.944 125.96 776.52 126.104 776.808 126.392C777.192 126.68 777.432 127.4 777.528 128.552C777.528 129.32 777.336 129.992 776.952 130.568C776.568 131.144 776.04 131.432 775.368 131.432C769.8 131.144 764.76 131 760.248 131C755.928 131 750.936 131.144 745.272 131.432Z" fill="black"/>
</g>
<g filter="url(#filter1_d_3_4)">
<path d="M7.04002 38.4161C5.84783 38.5707 4.01602 38.9921 4.01602 38.9921C7.50003 41.0001 13.5 46 18.272 56.5601C23.0441 67.1201 42.176 131.44 42.176 131.44H48.944L67.52 62.7521L90.848 131.44H97.616L115 66L113.5 65.5001L98.336 106.24H97.904L74.432 39.1361H66.944L49.376 106.24H48.8L32.384 53.5361C30.176 47.8721 27.2 43.9361 23.456 41.7281C19.712 39.5201 13.5257 37.575 7.04002 38.4161Z" fill="black"/>
<path d="M134.527 34.0935C104.144 37.9796 102.752 56.0097 112.792 67.4638C125.739 70.0834 135.281 62.2437 134.252 51.0102C133.96 47.8235 132.747 39.9315 134.527 34.0935Z" fill="#CE3358"/>
<path d="M127.953 39C118.453 48.5 116.51 60.1849 115.689 63.2959C114.663 67.1846 113.953 50 127.953 39Z" fill="#FCDDEC"/>
<path d="M104.234 48.6488C117.76 52.3029 119.946 61.7761 113.975 67.4771C106.86 68.2694 102.475 63.8091 103.57 57.7943C103.881 56.088 104.914 51.8859 104.234 48.6488Z" fill="#EE4870"/>
<path d="M107.712 53.6951C109.453 56.8532 112.989 63.5239 113.207 64.9419C113.48 66.7143 113.359 60.2459 107.712 53.6951Z" fill="#FCDDEC"/>
</g>
<defs>
<filter id="filter0_d_3_4" x="133.752" y="26.024" width="692.56" height="144.368" filterUnits="userSpaceOnUse" color-interpolation-filters="sRGB">
<feFlood flood-opacity="0" result="BackgroundImageFix"/>
<feColorMatrix in="SourceAlpha" type="matrix" values="0 0 0 0 0 0 0 0 0 0 0 0 0 0 0 0 0 0 127 0" result="hardAlpha"/>
<feOffset dy="4"/>
<feGaussianBlur stdDeviation="2"/>
<feColorMatrix type="matrix" values="0 0 0 0 0 0 0 0 0 0 0 0 0 0 0 0 0 0 0.25 0"/>
<feBlend mode="normal" in2="BackgroundImageFix" result="effect1_dropShadow_3_4"/>
<feBlend mode="normal" in="SourceGraphic" in2="effect1_dropShadow_3_4" result="shape"/>
</filter>
<filter id="filter1_d_3_4" x="0.0160217" y="34.0935" width="138.511" height="105.347" filterUnits="userSpaceOnUse" color-interpolation-filters="sRGB">
<feFlood flood-opacity="0" result="BackgroundImageFix"/>
<feColorMatrix in="SourceAlpha" type="matrix" values="0 0 0 0 0 0 0 0 0 0 0 0 0 0 0 0 0 0 127 0" result="hardAlpha"/>
<feOffset dy="4"/>
<feGaussianBlur stdDeviation="2"/>
<feColorMatrix type="matrix" values="0 0 0 0 0 0 0 0 0 0 0 0 0 0 0 0 0 0 0.25 0"/>
<feBlend mode="normal" in2="BackgroundImageFix" result="effect1_dropShadow_3_4"/>
<feBlend mode="normal" in="SourceGraphic" in2="effect1_dropShadow_3_4" result="shape"/>
</filter>
</defs>
</svg>
