<svg width="827" height="145" viewBox="0 0 827 145" fill="none" xmlns="http://www.w3.org/2000/svg">
<g filter="url(#filter0_d_201_16)">
<path d="M140.04 105.432C139.368 105.432 138.792 105.144 138.312 104.568C137.928 103.992 137.736 103.32 137.736 102.552C137.832 101.304 138.12 100.584 138.6 100.392C139.08 100.104 139.944 99.96 141.192 99.96C143.688 99.96 145.464 99.528 146.52 98.664C147.576 97.8 148.152 96.792 148.248 95.64C148.44 94.488 148.536 92.664 148.536 90.168V57.192C148.536 54.696 148.44 52.872 148.248 51.72C148.152 50.568 147.576 49.56 146.52 48.696C145.464 47.832 143.688 47.4 141.192 47.4C140.04 47.4 139.176 47.256 138.6 46.968C138.024 46.584 137.736 45.768 137.736 44.52C137.736 43.944 137.928 43.416 138.312 42.936C138.696 42.36 139.272 42.024 140.04 41.928C146.088 41.064 151.272 39.816 155.592 38.184C156.936 37.704 158.04 37.416 158.904 37.32H159.336C160.872 37.32 161.64 38.232 161.64 40.056V90.168C161.64 92.664 161.736 94.488 161.928 95.64C162.12 96.792 162.744 97.8 163.8 98.664C164.856 99.528 166.632 99.96 169.128 99.96H169.992C170.76 99.96 171.336 100.104 171.72 100.392C172.104 100.68 172.344 101.4 172.44 102.552C172.44 103.32 172.248 103.992 171.864 104.568C171.48 105.144 170.904 105.432 170.136 105.432C164.568 105.144 159.528 105 155.016 105C150.696 105 145.704 105.144 140.04 105.432ZM154.296 21.336C151.608 21.336 149.352 20.52 147.528 18.888C145.704 17.16 144.792 15.048 144.792 12.552C144.792 10.344 145.896 8.37599 148.104 6.64799C150.312 4.91999 152.808 4.05599 155.592 4.05599C157.992 4.05599 159.96 4.91999 161.496 6.64799C163.032 8.27999 163.8 10.392 163.8 12.984C163.8 15.288 162.888 17.256 161.064 18.888C159.24 20.52 156.984 21.336 154.296 21.336Z" fill="white"/>
<path d="M210.753 106.728C205.377 106.728 200.385 105.288 195.777 102.408C191.169 99.432 187.473 95.352 184.689 90.168C181.905 84.888 180.513 78.936 180.513 72.312C180.513 66.36 181.953 60.744 184.833 55.464C187.713 50.184 191.697 45.96 196.785 42.792C201.873 39.624 207.537 38.04 213.777 38.04C216.753 38.04 219.729 38.424 222.705 39.192C225.681 39.864 228.273 40.824 230.481 42.072H230.913V20.04C230.913 17.544 230.817 15.72 230.625 14.568C230.529 13.416 229.953 12.408 228.897 11.544C227.841 10.68 226.065 10.248 223.569 10.248C222.417 10.248 221.553 10.104 220.977 9.81599C220.401 9.43199 220.113 8.61599 220.113 7.36799C220.113 6.79199 220.305 6.26399 220.689 5.78399C221.073 5.20799 221.649 4.87198 222.417 4.77599C228.465 3.91199 233.649 2.66398 237.969 1.03198C239.313 0.551983 240.417 0.263985 241.281 0.167986H241.713C243.249 0.167986 244.017 1.07998 244.017 2.90398V91.752C244.017 97.416 247.761 100.248 255.249 100.248C256.881 100.248 257.697 101.016 257.697 102.552C257.697 103.896 256.881 104.712 255.249 105L232.353 106.584C231.681 106.584 231.297 106.344 231.201 105.864C231.105 105.48 231.057 104.76 231.057 103.704V97.944H230.625C228.129 100.536 225.057 102.648 221.409 104.28C217.857 105.912 214.305 106.728 210.753 106.728ZM215.649 99.528C219.009 99.528 221.841 98.904 224.145 97.656C226.545 96.312 228.801 94.536 230.913 92.328V54.312C230.049 51.528 228.225 48.984 225.441 46.68C222.753 44.376 219.345 43.224 215.217 43.224C211.473 43.224 208.065 44.424 204.993 46.824C202.017 49.128 199.665 52.536 197.937 57.048C196.209 61.56 195.345 66.888 195.345 73.032C195.345 80.424 197.073 86.712 200.529 91.896C204.081 96.984 209.121 99.528 215.649 99.528Z" fill="white"/>
<path d="M265.196 105.432C264.524 105.432 263.948 105.144 263.468 104.568C263.084 103.992 262.892 103.32 262.892 102.552C262.988 101.304 263.276 100.584 263.756 100.392C264.236 100.104 265.1 99.96 266.348 99.96C268.844 99.96 270.62 99.528 271.676 98.664C272.732 97.8 273.308 96.792 273.404 95.64C273.596 94.488 273.692 92.664 273.692 90.168V57.192C273.692 54.696 273.596 52.872 273.404 51.72C273.308 50.568 272.732 49.56 271.676 48.696C270.62 47.832 268.844 47.4 266.348 47.4C265.196 47.4 264.332 47.256 263.756 46.968C263.18 46.584 262.892 45.768 262.892 44.52C262.892 43.944 263.084 43.416 263.468 42.936C263.852 42.36 264.428 42.024 265.196 41.928C271.244 41.064 276.428 39.816 280.748 38.184C282.092 37.704 283.196 37.416 284.06 37.32H284.492C286.028 37.32 286.796 38.232 286.796 40.056V90.168C286.796 92.664 286.892 94.488 287.084 95.64C287.276 96.792 287.9 97.8 288.956 98.664C290.012 99.528 291.788 99.96 294.284 99.96H295.148C295.916 99.96 296.492 100.104 296.876 100.392C297.26 100.68 297.5 101.4 297.596 102.552C297.596 103.32 297.404 103.992 297.02 104.568C296.636 105.144 296.06 105.432 295.292 105.432C289.724 105.144 284.684 105 280.172 105C275.852 105 270.86 105.144 265.196 105.432ZM279.452 21.336C276.764 21.336 274.508 20.52 272.684 18.888C270.86 17.16 269.948 15.048 269.948 12.552C269.948 10.344 271.052 8.37599 273.26 6.64799C275.468 4.91999 277.964 4.05599 280.748 4.05599C283.148 4.05599 285.116 4.91999 286.652 6.64799C288.188 8.27999 288.956 10.392 288.956 12.984C288.956 15.288 288.044 17.256 286.22 18.888C284.396 20.52 282.14 21.336 279.452 21.336Z" fill="white"/>
<path d="M313.449 136.392C309.321 136.392 305.625 135.048 302.361 132.36C299.193 129.768 297.609 126.648 297.609 123C297.609 118.68 298.809 115.896 301.209 114.648C303.609 113.496 305.481 112.92 306.825 112.92C308.457 112.92 309.801 113.256 310.857 113.928C311.913 114.6 312.441 115.224 312.441 115.8C312.441 115.992 312.057 116.472 311.289 117.24C310.521 118.008 310.137 119.352 310.137 121.272C310.137 123.192 310.713 124.872 311.865 126.312C313.113 127.752 314.841 128.472 317.049 128.472C323.097 128.472 329.001 122.28 334.761 109.896C335.145 108.552 335.337 107.544 335.337 106.872C335.337 105.912 335.097 104.712 334.617 103.272C332.697 98.952 329.481 90.936 324.969 79.224C321.033 68.76 317.817 60.792 315.321 55.32C313.689 51.576 312.153 49.032 310.713 47.688C309.273 46.248 307.161 45.336 304.377 44.952C304.089 44.856 303.561 44.76 302.793 44.664C302.025 44.568 301.545 44.328 301.353 43.944C301.161 43.56 301.065 42.888 301.065 41.928C301.065 40.776 301.353 40.056 301.929 39.768C302.601 39.48 303.369 39.336 304.233 39.336C305.193 39.24 305.817 39.192 306.105 39.192C311.961 38.904 316.569 39.768 319.929 41.784C323.289 43.704 326.073 47.112 328.281 52.008C330.393 56.904 332.265 61.56 333.897 65.976C337.737 76.344 340.857 83.928 343.257 88.728H343.689L357.801 51C358.281 49.368 358.521 48.216 358.521 47.544C358.521 46.488 358.041 45.768 357.081 45.384C356.121 45 354.537 44.808 352.329 44.808H351.465C350.697 44.808 350.121 44.664 349.737 44.376C349.449 44.088 349.257 43.368 349.161 42.216C349.161 41.544 349.305 40.92 349.593 40.344C349.977 39.672 350.505 39.336 351.177 39.336C356.649 39.624 361.305 39.768 365.145 39.768C366.681 39.768 369.657 39.672 374.073 39.48L377.097 39.336C377.769 39.336 378.297 39.672 378.681 40.344C379.065 40.92 379.257 41.544 379.257 42.216C379.161 43.368 378.921 44.088 378.537 44.376C378.153 44.664 377.577 44.808 376.809 44.808C373.257 44.808 370.521 45.384 368.601 46.536C366.681 47.688 365.049 49.944 363.705 53.304C361.497 58.776 357.945 67.56 353.049 79.656C348.153 91.752 344.505 100.68 342.105 106.44C338.649 114.696 334.617 121.752 330.009 127.608C325.401 133.464 319.881 136.392 313.449 136.392Z" fill="white"/>
<path d="M402.567 106.728C396.807 106.728 392.151 105.096 388.599 101.832C385.047 98.568 383.271 94.488 383.271 89.592C383.271 83.544 385.287 79.032 389.319 76.056C393.351 72.984 398.151 71.016 403.719 70.152C409.287 69.192 416.487 68.472 425.319 67.992V56.616C425.319 51.912 424.119 48.36 421.719 45.96C419.415 43.464 415.671 42.216 410.487 42.216C407.511 42.216 404.919 43.128 402.711 44.952C400.503 46.776 399.399 49.224 399.399 52.296C399.399 53.832 399.735 55.128 400.407 56.184C401.175 57.144 401.943 57.96 402.711 58.632C403.575 59.304 404.007 59.688 404.007 59.784C404.007 60.36 403.383 61.128 402.135 62.088C400.983 62.952 399.543 63.384 397.815 63.384C394.935 63.384 392.631 62.328 390.903 60.216C389.271 58.104 388.455 55.608 388.455 52.728C388.455 47.736 390.663 44.04 395.079 41.64C399.591 39.24 405.015 38.04 411.351 38.04C419.223 38.04 425.607 39.528 430.503 42.504C435.495 45.48 437.991 51 437.991 59.064V92.616C438.087 94.632 438.711 96.552 439.863 98.376C441.015 100.2 442.887 101.112 445.479 101.112C446.247 101.112 446.775 101.256 447.063 101.544C447.447 101.832 447.639 102.456 447.639 103.416C447.639 104.568 446.727 105.384 444.903 105.864C443.175 106.44 441.447 106.728 439.719 106.728C436.071 106.728 432.855 105.672 430.071 103.56C427.287 101.448 425.703 98.616 425.319 95.064C423.303 98.808 420.183 101.688 415.959 103.704C411.831 105.72 407.367 106.728 402.567 106.728ZM407.175 98.952C410.439 98.952 413.463 98.136 416.247 96.504C419.031 94.872 421.239 92.664 422.871 89.88C424.503 87 425.319 83.832 425.319 80.376V72.168C415.239 72.936 408.135 74.568 404.007 77.064C399.879 79.56 397.815 83.592 397.815 89.16C397.815 95.688 400.935 98.952 407.175 98.952Z" fill="white"/>
<path d="M520.738 107.88C510.658 107.88 502.93 106.152 497.554 102.696C492.274 99.144 489.634 93.96 489.634 87.144C489.634 83.688 490.786 80.856 493.09 78.648C495.49 76.344 498.562 75.192 502.306 75.192C504.514 75.288 506.194 75.864 507.346 76.92C508.498 77.88 509.074 78.792 509.074 79.656C509.074 79.752 508.594 80.088 507.634 80.664C506.674 81.24 505.81 82.104 505.042 83.256C504.274 84.408 503.89 85.992 503.89 88.008C503.89 92.52 505.234 96.024 507.922 98.52C510.706 100.92 514.978 102.12 520.738 102.12C524.674 102.12 528.13 101.352 531.106 99.816C534.082 98.28 536.338 96.264 537.874 93.768C539.506 91.176 540.322 88.488 540.322 85.704C540.322 82.248 539.314 79.272 537.298 76.776C535.378 74.28 532.978 72.216 530.098 70.584C527.218 68.856 523.282 66.888 518.29 64.68C512.53 62.088 507.874 59.736 504.322 57.624C500.77 55.512 497.746 52.728 495.25 49.272C492.754 45.72 491.506 41.352 491.506 36.168C491.506 27.816 494.338 21.576 500.002 17.448C505.762 13.32 513.298 11.256 522.61 11.256C529.906 11.256 536.242 12.792 541.618 15.864C547.09 18.936 549.826 23.448 549.826 29.4C549.826 32.856 548.626 35.736 546.226 38.04C543.922 40.248 540.898 41.352 537.154 41.352C534.946 41.256 533.266 40.728 532.114 39.768C530.962 38.712 530.386 37.752 530.386 36.888C530.386 36.792 531.01 36.456 532.258 35.88C533.602 35.304 534.754 34.44 535.714 33.288C536.77 32.136 537.298 30.552 537.298 28.536C537.298 24.984 535.906 22.2 533.122 20.184C530.434 18.168 526.978 17.16 522.754 17.16C516.898 17.16 512.434 18.552 509.362 21.336C506.386 24.024 504.898 27.384 504.898 31.416C504.898 34.776 505.81 37.608 507.634 39.912C509.458 42.12 512.386 44.328 516.418 46.536C519.682 48.264 523.234 49.992 527.074 51.72C533.218 54.504 538.066 57.048 541.618 59.352C545.266 61.656 548.29 64.68 550.69 68.424C553.186 72.168 554.434 76.824 554.434 82.392C554.434 87.192 552.898 91.56 549.826 95.496C546.85 99.336 542.77 102.36 537.586 104.568C532.498 106.776 526.882 107.88 520.738 107.88Z" fill="white"/>
<path d="M585.238 106.728C579.478 106.728 574.822 105.096 571.27 101.832C567.718 98.568 565.942 94.488 565.942 89.592C565.942 83.544 567.958 79.032 571.99 76.056C576.022 72.984 580.822 71.016 586.39 70.152C591.958 69.192 599.158 68.472 607.99 67.992V56.616C607.99 51.912 606.79 48.36 604.39 45.96C602.086 43.464 598.342 42.216 593.158 42.216C590.182 42.216 587.59 43.128 585.382 44.952C583.174 46.776 582.07 49.224 582.07 52.296C582.07 53.832 582.406 55.128 583.078 56.184C583.846 57.144 584.614 57.96 585.382 58.632C586.246 59.304 586.678 59.688 586.678 59.784C586.678 60.36 586.054 61.128 584.806 62.088C583.654 62.952 582.214 63.384 580.486 63.384C577.606 63.384 575.302 62.328 573.574 60.216C571.942 58.104 571.126 55.608 571.126 52.728C571.126 47.736 573.334 44.04 577.75 41.64C582.262 39.24 587.686 38.04 594.022 38.04C601.894 38.04 608.278 39.528 613.174 42.504C618.166 45.48 620.662 51 620.662 59.064V92.616C620.758 94.632 621.382 96.552 622.534 98.376C623.686 100.2 625.558 101.112 628.15 101.112C628.918 101.112 629.446 101.256 629.734 101.544C630.118 101.832 630.31 102.456 630.31 103.416C630.31 104.568 629.398 105.384 627.574 105.864C625.846 106.44 624.118 106.728 622.39 106.728C618.742 106.728 615.526 105.672 612.742 103.56C609.958 101.448 608.374 98.616 607.99 95.064C605.974 98.808 602.854 101.688 598.63 103.704C594.502 105.72 590.038 106.728 585.238 106.728ZM589.846 98.952C593.11 98.952 596.134 98.136 598.918 96.504C601.702 94.872 603.91 92.664 605.542 89.88C607.174 87 607.99 83.832 607.99 80.376V72.168C597.91 72.936 590.806 74.568 586.678 77.064C582.55 79.56 580.486 83.592 580.486 89.16C580.486 95.688 583.606 98.952 589.846 98.952Z" fill="white"/>
<path d="M664.579 106.728C656.899 106.728 650.659 105.384 645.859 102.696C641.059 100.008 638.659 96.216 638.659 91.32C638.659 88.536 639.475 86.28 641.107 84.552C642.835 82.824 645.043 81.96 647.731 81.96C649.267 81.96 650.611 82.392 651.763 83.256C653.011 84.12 653.635 84.792 653.635 85.272C653.635 85.368 653.059 85.992 651.907 87.144C650.851 88.296 650.323 89.928 650.323 92.04C650.323 94.92 651.619 97.224 654.211 98.952C656.899 100.584 660.739 101.4 665.731 101.4C670.243 101.4 673.747 100.44 676.243 98.52C678.835 96.504 680.131 93.72 680.131 90.168C680.131 87.768 679.411 85.8 677.971 84.264C676.531 82.728 674.707 81.528 672.499 80.664C670.387 79.8 667.411 78.792 663.571 77.64C658.867 76.296 655.027 74.952 652.051 73.608C649.075 72.264 646.531 70.248 644.419 67.56C642.307 64.872 641.251 61.368 641.251 57.048C641.251 53.016 642.499 49.56 644.995 46.68C647.491 43.8 650.707 41.64 654.643 40.2C658.675 38.76 662.899 38.04 667.315 38.04C672.979 38.04 677.875 39.24 682.003 41.64C686.227 44.04 688.339 47.4 688.339 51.72C688.339 54.312 687.523 56.52 685.891 58.344C684.355 60.168 682.291 61.08 679.699 61.08C678.163 61.08 676.771 60.648 675.523 59.784C674.371 58.92 673.795 58.248 673.795 57.768C673.795 57.672 674.179 57.288 674.947 56.616C675.715 55.944 676.387 55.176 676.963 54.312C677.635 53.352 677.971 52.248 677.971 51C677.779 48.408 676.483 46.392 674.083 44.952C671.683 43.512 668.851 42.792 665.587 42.792C661.939 42.792 658.723 43.656 655.939 45.384C653.251 47.016 651.907 49.32 651.907 52.296C651.907 54.984 652.483 57.144 653.635 58.776C654.787 60.312 656.515 61.56 658.819 62.52C661.123 63.48 664.771 64.776 669.763 66.408C674.851 68.04 678.835 69.576 681.715 71.016C684.595 72.36 686.851 74.232 688.483 76.632C690.211 78.936 691.075 82.008 691.075 85.848C691.075 89.784 689.923 93.384 687.619 96.648C685.315 99.816 682.147 102.312 678.115 104.136C674.083 105.864 669.571 106.728 664.579 106.728Z" fill="white"/>
<path d="M704.087 105.432C703.415 105.432 702.839 105.144 702.359 104.568C701.975 103.992 701.783 103.32 701.783 102.552C701.879 101.304 702.167 100.584 702.647 100.392C703.127 100.104 703.991 99.96 705.239 99.96C707.735 99.96 709.511 99.528 710.567 98.664C711.623 97.8 712.199 96.792 712.295 95.64C712.487 94.488 712.583 92.664 712.583 90.168V57.192C712.583 54.696 712.487 52.872 712.295 51.72C712.199 50.568 711.623 49.56 710.567 48.696C709.511 47.832 707.735 47.4 705.239 47.4C704.087 47.4 703.223 47.256 702.647 46.968C702.071 46.584 701.783 45.768 701.783 44.52C701.783 43.944 701.975 43.416 702.359 42.936C702.743 42.36 703.319 42.024 704.087 41.928C710.135 41.064 715.319 39.816 719.639 38.184C720.983 37.704 722.087 37.416 722.951 37.32H723.383C724.919 37.32 725.687 38.232 725.687 40.056V90.168C725.687 92.664 725.783 94.488 725.975 95.64C726.167 96.792 726.791 97.8 727.847 98.664C728.903 99.528 730.679 99.96 733.175 99.96H734.039C734.807 99.96 735.383 100.104 735.767 100.392C736.151 100.68 736.391 101.4 736.487 102.552C736.487 103.32 736.295 103.992 735.911 104.568C735.527 105.144 734.951 105.432 734.183 105.432C728.615 105.144 723.575 105 719.063 105C714.743 105 709.751 105.144 704.087 105.432ZM718.343 21.336C715.655 21.336 713.399 20.52 711.575 18.888C709.751 17.16 708.839 15.048 708.839 12.552C708.839 10.344 709.943 8.37599 712.151 6.64799C714.359 4.91999 716.855 4.05599 719.639 4.05599C722.039 4.05599 724.007 4.91999 725.543 6.64799C727.079 8.27999 727.847 10.392 727.847 12.984C727.847 15.288 726.935 17.256 725.111 18.888C723.287 20.52 721.031 21.336 718.343 21.336Z" fill="white"/>
<path d="M745.256 105.432C744.488 105.432 743.912 105.144 743.528 104.568C743.144 103.992 742.952 103.32 742.952 102.552C743.048 101.304 743.288 100.584 743.672 100.392C744.152 100.104 745.016 99.96 746.264 99.96C748.76 99.96 750.536 99.528 751.592 98.664C752.648 97.8 753.272 96.792 753.464 95.64C753.656 94.488 753.752 92.664 753.752 90.168V19.896C753.752 17.4 753.656 15.576 753.464 14.424C753.368 13.272 752.792 12.264 751.736 11.4C750.68 10.536 748.904 10.104 746.408 10.104C745.256 10.104 744.392 9.95998 743.816 9.67198C743.24 9.28799 742.952 8.47199 742.952 7.22399C742.952 6.64799 743.144 6.11998 743.528 5.63998C743.912 5.06399 744.488 4.72799 745.256 4.63199C750.056 3.95999 753.656 3.23999 756.056 2.47199C758.552 1.60799 759.992 1.12799 760.376 1.03198C762.2 0.359985 763.448 0.0239868 764.12 0.0239868C765.944 0.0239868 766.856 0.935987 766.856 2.75999V49.128H767.144C769.928 46.536 772.184 44.568 773.912 43.224C775.64 41.784 777.848 40.584 780.536 39.624C783.32 38.568 786.584 38.04 790.328 38.04C796.856 38.04 802.04 40.008 805.88 43.944C809.72 47.88 811.64 53.064 811.64 59.496V90.168C811.64 92.664 811.688 94.488 811.784 95.64C811.976 96.792 812.6 97.8 813.656 98.664C814.712 99.528 816.488 99.96 818.984 99.96H819.848C820.712 99.96 821.288 100.104 821.576 100.392C821.96 100.68 822.2 101.4 822.296 102.552C822.296 103.32 822.104 103.992 821.72 104.568C821.336 105.144 820.808 105.432 820.136 105.432C814.472 105.144 809.432 105 805.016 105C800.504 105 795.512 105.144 790.04 105.432C789.272 105.432 788.696 105.144 788.312 104.568C787.928 103.992 787.736 103.32 787.736 102.552C787.832 101.304 788.072 100.584 788.456 100.392C788.936 100.104 789.8 99.96 791.048 99.96C793.544 99.96 795.32 99.528 796.376 98.664C797.432 97.8 798.008 96.84 798.104 95.784C798.296 94.632 798.392 92.76 798.392 90.168V59.64C798.392 55.224 797 51.864 794.216 49.56C791.528 47.16 788.36 45.96 784.712 45.96C780.296 45.96 776.456 47.064 773.192 49.272C770.024 51.48 767.912 53.688 766.856 55.896V90.168C766.856 92.664 766.904 94.488 767 95.64C767.192 96.792 767.816 97.8 768.872 98.664C769.928 99.528 771.704 99.96 774.2 99.96H775.064C775.928 99.96 776.504 100.104 776.792 100.392C777.176 100.68 777.416 101.4 777.512 102.552C777.512 103.32 777.32 103.992 776.936 104.568C776.552 105.144 776.024 105.432 775.352 105.432C769.784 105.144 764.744 105 760.232 105C755.912 105 750.92 105.144 745.256 105.432Z" fill="white"/>
</g>
<g filter="url(#filter1_d_201_16)">
<path d="M7.024 12.4161C5.83181 12.5707 4 12.9921 4 12.9921C7.48401 15.0001 13.484 20 18.256 30.5601C23.028 41.1201 42.16 105.44 42.16 105.44H48.928L67.504 36.7521L90.832 105.44H97.6L114.984 40L113.484 39.5001L98.32 80.2401H97.888L74.416 13.1361H66.928L49.36 80.2401H48.784L32.368 27.5361C30.16 21.8721 27.184 17.9361 23.44 15.7281C19.696 13.5201 13.5097 11.575 7.024 12.4161Z" fill="white"/>
<path d="M134.511 8.09347C104.128 11.9796 102.736 30.0097 112.776 41.4638C125.723 44.0834 135.265 36.2437 134.236 25.0102C133.944 21.8235 132.731 13.9315 134.511 8.09347Z" fill="#CE3358"/>
<path d="M127.937 13C118.437 22.5 116.494 34.1849 115.673 37.2959C114.647 41.1846 113.937 24 127.937 13Z" fill="#FCDDEC"/>
<path d="M104.218 22.6488C117.744 26.3029 119.93 35.7761 113.959 41.4771C106.844 42.2694 102.459 37.8091 103.554 31.7943C103.865 30.088 104.898 25.8859 104.218 22.6488Z" fill="#EE4870"/>
<path d="M107.696 27.6951C109.437 30.8532 112.973 37.5239 113.191 38.9419C113.464 40.7143 113.343 34.2459 107.696 27.6951Z" fill="#FCDDEC"/>
</g>
<defs>
<filter id="filter0_d_201_16" x="133.736" y="0.0239868" width="692.56" height="144.368" filterUnits="userSpaceOnUse" color-interpolation-filters="sRGB">
<feFlood flood-opacity="0" result="BackgroundImageFix"/>
<feColorMatrix in="SourceAlpha" type="matrix" values="0 0 0 0 0 0 0 0 0 0 0 0 0 0 0 0 0 0 127 0" result="hardAlpha"/>
<feOffset dy="4"/>
<feGaussianBlur stdDeviation="2"/>
<feColorMatrix type="matrix" values="0 0 0 0 0 0 0 0 0 0 0 0 0 0 0 0 0 0 0.25 0"/>
<feBlend mode="normal" in2="BackgroundImageFix" result="effect1_dropShadow_201_16"/>
<feBlend mode="normal" in="SourceGraphic" in2="effect1_dropShadow_201_16" result="shape"/>
</filter>
<filter id="filter1_d_201_16" x="0" y="8.09346" width="138.511" height="105.347" filterUnits="userSpaceOnUse" color-interpolation-filters="sRGB">
<feFlood flood-opacity="0" result="BackgroundImageFix"/>
<feColorMatrix in="SourceAlpha" type="matrix" values="0 0 0 0 0 0 0 0 0 0 0 0 0 0 0 0 0 0 127 0" result="hardAlpha"/>
<feOffset dy="4"/>
<feGaussianBlur stdDeviation="2"/>
<feColorMatrix type="matrix" values="0 0 0 0 0 0 0 0 0 0 0 0 0 0 0 0 0 0 0.25 0"/>
<feBlend mode="normal" in2="BackgroundImageFix" result="effect1_dropShadow_201_16"/>
<feBlend mode="normal" in="SourceGraphic" in2="effect1_dropShadow_201_16" result="shape"/>
</filter>
</defs>
</svg>
