<svg width="80" height="80" viewBox="0 0 80 80" fill="none" xmlns="http://www.w3.org/2000/svg">
<g clip-path="url(#clip0_105_486)">
<path d="M72.0656 13.4845H66.4263L56.6855 46.2593H50.0207L51.3203 50.3075H60.1371L72.0656 13.4845Z" fill="#2EC4B6"/>
<path d="M38.2293 39.2001L44.0594 28.0062L41.818 22.0564L34.724 34.7485H26.4259L28.5004 39.4162L38.2293 39.2001Z" fill="#2EC4B6"/>
<mask id="path-2-inside-1_105_486" fill="white">
<path d="M35.3232 36.0496H25.5618L15.4151 0H26.2682L31.0936 24.8944L38.4378 9.86414H46.134L51.8389 36.3044L59.6184 9.86414H67.9468L56.7083 46.951H46.9469L41.4562 24.4099L35.3232 36.0496Z"/>
</mask>
<path d="M35.3232 36.0496V38.0496H36.53L37.0926 36.9819L35.3232 36.0496ZM25.5618 36.0496L23.6366 36.5915L24.047 38.0496H25.5618V36.0496ZM15.4151 0V-2H12.7745L13.4899 0.541875L15.4151 0ZM26.2682 0L28.2317 -0.380582L27.9178 -2H26.2682V0ZM31.0936 24.8944L29.1301 25.275L32.8905 25.7725L31.0936 24.8944ZM38.4378 9.86414V7.86414H37.1891L36.6409 8.98609L38.4378 9.86414ZM46.134 9.86414L48.089 9.44231L47.7485 7.86414H46.134V9.86414ZM51.8389 36.3044L49.8839 36.7262L53.7576 36.8689L51.8389 36.3044ZM59.6184 9.86414V7.86414H58.1221L57.6998 9.29961L59.6184 9.86414ZM67.9468 9.86414L69.8608 10.4442L70.6426 7.86414H67.9468V9.86414ZM56.7083 46.951V48.951H58.1921L58.6224 47.531L56.7083 46.951ZM46.9469 46.951L45.0038 47.4243L45.3756 48.951H46.9469V46.951ZM41.4562 24.4099L43.3993 23.9366L42.1492 18.8042L39.6868 23.4776L41.4562 24.4099ZM35.3232 34.0496H25.5618V38.0496H35.3232V34.0496ZM27.487 35.5077L17.3403 -0.541875L13.4899 0.541875L23.6366 36.5915L27.487 35.5077ZM15.4151 2H26.2682V-2H15.4151V2ZM24.3048 0.380582L29.1301 25.275L33.057 24.5138L28.2317 -0.380582L24.3048 0.380582ZM32.8905 25.7725L40.2348 10.7422L36.6409 8.98609L29.2966 24.0164L32.8905 25.7725ZM38.4378 11.8641H46.134V7.86414H38.4378V11.8641ZM44.179 10.286L49.8839 36.7262L53.7939 35.8825L48.089 9.44231L44.179 10.286ZM53.7576 36.8689L61.5371 10.4287L57.6998 9.29961L49.9203 35.7398L53.7576 36.8689ZM59.6184 11.8641H67.9468V7.86414H59.6184V11.8641ZM66.0327 9.28412L54.7943 46.371L58.6224 47.531L69.8608 10.4442L66.0327 9.28412ZM56.7083 44.951H46.9469V48.951H56.7083V44.951ZM48.8901 46.4776L43.3993 23.9366L39.513 24.8832L45.0038 47.4243L48.8901 46.4776ZM39.6868 23.4776L33.5538 35.1173L37.0926 36.9819L43.2256 25.3422L39.6868 23.4776Z" fill="white" mask="url(#path-2-inside-1_105_486)"/>
<path d="M44.1001 47.0914L46.6526 50.8634L38.8731 56.5683C37.8562 53.4116 34.2054 50.8634 30.575 50.8634C26.0444 50.8634 24.2738 51.3642 23.7635 51.812L23.8327 52.4193C23.5885 52.2996 23.4762 52.0642 23.7635 51.812L23.5 49.5C24.3474 47.8386 24.7458 47.0914 28 47.0914C32.0677 47.0914 35.4661 48.0063 37.5 50C39.1271 51.595 40 51.5 40.5409 50.5804L44.1001 47.0914Z" fill="#2EC4B6"/>
<path d="M10.0532 73.6831V61.5C21.4632 70.3168 36.5 73.6831 38 69C39 78.5 19.9073 74.6677 15.7582 70V76.5L10.0532 73.6831Z" fill="#2EC4B6"/>
<path fill-rule="evenodd" clip-rule="evenodd" d="M34.8535 41.7124C30.1398 40.3829 24.6802 40.2921 19.9819 42.8762C15.2281 45.4908 13.6656 48.7851 13.9335 51.7861C14.2079 54.8594 16.4256 57.9726 19.9651 60.1128C21.2197 60.6735 22.911 61.0874 24.8509 61.4723C25.5923 61.6194 26.3784 61.7636 27.1798 61.9107C28.4411 62.1421 29.7404 62.3805 30.9637 62.6481C32.9831 63.0898 34.9651 63.6433 36.556 64.4726C38.1501 65.3036 39.4868 66.4844 39.9647 68.2369L39.9893 68.3271L39.9968 68.4202C40.1081 69.812 39.9068 71.0229 39.3961 72.0418C38.8832 73.0652 38.0918 73.8274 37.1355 74.3698C35.2638 75.4315 32.7348 75.6688 30.1709 75.4978C25.7645 75.2038 20.7601 73.6645 17.5 72.1375V75.6914C22.8575 76.8202 27.2714 77.375 30.8125 77.375C34.5402 77.375 37.1979 76.7595 38.97 75.652C41.3861 74.1419 42.7854 72.4593 43.4807 70.8163C44.1744 69.1771 44.1987 67.5054 43.7443 65.9495C42.8218 62.7905 39.9343 60.1515 36.7904 59.4778C33.1962 58.7076 29.2016 57.1676 26.3918 55.338C24.9984 54.4307 23.8015 53.3916 23.1315 52.2592C22.79 51.682 22.5639 51.044 22.5538 50.3664C22.5436 49.6758 22.7594 49.0164 23.1863 48.4188L23.2516 48.3273L23.3356 48.2526C25.9335 45.9433 29.5396 45.7798 32.688 46.5944C35.4121 47.2992 38.0161 48.7883 39.6418 50.5801L44.1166 46.8511C43.4151 46.0668 42.3768 45.2152 41.0528 44.3978C39.3364 43.3381 37.2033 42.3752 34.8535 41.7124ZM42.1034 42.696C43.9648 43.8452 45.4716 45.1547 46.332 46.4453L46.8305 47.1929L39.3021 53.4666L38.6791 52.5711C37.517 50.9005 35.0011 49.2587 32.187 48.5306C29.4215 47.8151 26.6552 48.0489 24.7551 49.6684C24.6025 49.9107 24.5505 50.1299 24.5536 50.3367C24.5572 50.5811 24.6396 50.8805 24.8528 51.2408C25.2922 51.9834 26.189 52.8193 27.4832 53.662C30.0484 55.3324 33.8037 56.7924 37.2095 57.5222C41.0657 58.3485 44.5338 61.5184 45.6641 65.3889C46.2362 67.3478 46.2112 69.4959 45.3225 71.5957C44.4356 73.6916 42.7195 75.6671 40.03 77.348C37.8021 78.7404 34.7098 79.375 30.8125 79.375C26.9006 79.375 22.0734 78.7349 16.2876 77.4772L15.5 77.3059V68.7768L16.9961 69.6317C19.7869 71.2265 25.4657 73.1794 30.3041 73.5022C32.736 73.6645 34.7883 73.4018 36.1488 72.6302C36.8087 72.2559 37.2962 71.7681 37.6081 71.1457C37.9131 70.5372 38.0817 69.7368 38.0103 68.6771C37.7171 67.7183 36.936 66.9261 35.6315 66.2461C34.2849 65.5442 32.5169 65.0351 30.5363 64.6019C29.3313 64.3383 28.1093 64.1145 26.8843 63.8901C26.0767 63.7421 25.2678 63.594 24.4616 63.434C22.4905 63.0429 20.5766 62.5878 19.0862 61.9104L19.0343 61.8868L18.9855 61.8575C15.0538 59.4985 12.2908 55.8763 11.9415 51.9639C11.5844 47.9649 13.7719 44.0092 19.0181 41.1238C24.3198 38.2078 30.3602 38.3671 35.3964 39.7875C37.9216 40.4998 40.226 41.5369 42.1034 42.696Z" fill="white"/>
</g>
<defs>
<clipPath id="clip0_105_486">
<rect width="80" height="80" fill="white"/>
</clipPath>
</defs>
</svg>
